<mxfile host="app.diagrams.net" modified="2024-05-12T21:03:01.043Z" agent="Mozilla/5.0 (Windows NT 10.0; Win64; x64) AppleWebKit/537.36 (KHTML, like Gecko) Chrome/124.0.0.0 Safari/537.36" etag="nluuz6-UTxRaJ8bqABI1" version="24.4.0" type="google" pages="3">
  <diagram name="subscribing" id="1O4i-O54_sNtyzFZJCOy">
    <mxGraphModel dx="1268" dy="1425" grid="0" gridSize="10" guides="1" tooltips="1" connect="1" arrows="1" fold="1" page="0" pageScale="1" pageWidth="827" pageHeight="1169" math="0" shadow="0">
      <root>
        <mxCell id="0" />
        <mxCell id="1" parent="0" />
        <mxCell id="tNVImOsVkvM8HF4KnN8y-1" style="edgeStyle=none;curved=1;rounded=0;orthogonalLoop=1;jettySize=auto;html=1;exitX=0;exitY=1;exitDx=0;exitDy=0;fontSize=12;startSize=8;endSize=8;" edge="1" parent="1" source="tNVImOsVkvM8HF4KnN8y-2" target="tNVImOsVkvM8HF4KnN8y-4">
          <mxGeometry relative="1" as="geometry" />
        </mxCell>
        <mxCell id="tNVImOsVkvM8HF4KnN8y-2" value="&lt;font style=&quot;font-size: 16px;&quot;&gt;user 1&lt;/font&gt;" style="ellipse;whiteSpace=wrap;html=1;aspect=fixed;" vertex="1" parent="1">
          <mxGeometry x="84" y="-8" width="80" height="80" as="geometry" />
        </mxCell>
        <mxCell id="tNVImOsVkvM8HF4KnN8y-3" style="edgeStyle=none;curved=1;rounded=0;orthogonalLoop=1;jettySize=auto;html=1;exitX=0;exitY=1;exitDx=0;exitDy=0;fontSize=12;startSize=8;endSize=8;" edge="1" parent="1" source="tNVImOsVkvM8HF4KnN8y-4" target="tNVImOsVkvM8HF4KnN8y-18">
          <mxGeometry relative="1" as="geometry" />
        </mxCell>
        <mxCell id="tNVImOsVkvM8HF4KnN8y-4" value="&lt;font style=&quot;font-size: 16px;&quot;&gt;user 2&lt;/font&gt;" style="ellipse;whiteSpace=wrap;html=1;aspect=fixed;" vertex="1" parent="1">
          <mxGeometry x="-33" y="-54" width="80" height="80" as="geometry" />
        </mxCell>
        <mxCell id="tNVImOsVkvM8HF4KnN8y-5" style="edgeStyle=none;curved=1;rounded=0;orthogonalLoop=1;jettySize=auto;html=1;exitX=0.5;exitY=0;exitDx=0;exitDy=0;fontSize=12;startSize=8;endSize=8;" edge="1" parent="1" source="tNVImOsVkvM8HF4KnN8y-7" target="tNVImOsVkvM8HF4KnN8y-2">
          <mxGeometry relative="1" as="geometry" />
        </mxCell>
        <mxCell id="tNVImOsVkvM8HF4KnN8y-6" style="edgeStyle=none;curved=1;rounded=0;orthogonalLoop=1;jettySize=auto;html=1;exitX=0.5;exitY=1;exitDx=0;exitDy=0;fontSize=12;startSize=8;endSize=8;" edge="1" parent="1" source="tNVImOsVkvM8HF4KnN8y-7" target="tNVImOsVkvM8HF4KnN8y-14">
          <mxGeometry relative="1" as="geometry" />
        </mxCell>
        <mxCell id="tNVImOsVkvM8HF4KnN8y-7" value="&lt;font style=&quot;font-size: 16px;&quot;&gt;user 3&lt;/font&gt;" style="ellipse;whiteSpace=wrap;html=1;aspect=fixed;" vertex="1" parent="1">
          <mxGeometry x="189" y="149" width="80" height="80" as="geometry" />
        </mxCell>
        <mxCell id="tNVImOsVkvM8HF4KnN8y-8" style="edgeStyle=none;curved=1;rounded=0;orthogonalLoop=1;jettySize=auto;html=1;exitX=1;exitY=1;exitDx=0;exitDy=0;fontSize=12;startSize=8;endSize=8;" edge="1" parent="1" source="tNVImOsVkvM8HF4KnN8y-9" target="tNVImOsVkvM8HF4KnN8y-4">
          <mxGeometry relative="1" as="geometry" />
        </mxCell>
        <mxCell id="tNVImOsVkvM8HF4KnN8y-9" value="&lt;font style=&quot;font-size: 16px;&quot;&gt;user 4&lt;/font&gt;" style="ellipse;whiteSpace=wrap;html=1;aspect=fixed;" vertex="1" parent="1">
          <mxGeometry x="-168" y="65" width="80" height="80" as="geometry" />
        </mxCell>
        <mxCell id="tNVImOsVkvM8HF4KnN8y-10" style="edgeStyle=none;curved=1;rounded=0;orthogonalLoop=1;jettySize=auto;html=1;exitX=1;exitY=0.5;exitDx=0;exitDy=0;entryX=0;entryY=0.5;entryDx=0;entryDy=0;fontSize=12;startSize=8;endSize=8;" edge="1" parent="1" source="tNVImOsVkvM8HF4KnN8y-11" target="tNVImOsVkvM8HF4KnN8y-9">
          <mxGeometry relative="1" as="geometry" />
        </mxCell>
        <mxCell id="tNVImOsVkvM8HF4KnN8y-11" value="&lt;font style=&quot;font-size: 16px;&quot;&gt;user 5&lt;/font&gt;" style="ellipse;whiteSpace=wrap;html=1;aspect=fixed;" vertex="1" parent="1">
          <mxGeometry x="-312" y="21" width="80" height="80" as="geometry" />
        </mxCell>
        <mxCell id="tNVImOsVkvM8HF4KnN8y-12" style="edgeStyle=none;curved=1;rounded=0;orthogonalLoop=1;jettySize=auto;html=1;exitX=0;exitY=1;exitDx=0;exitDy=0;fontSize=12;startSize=8;endSize=8;" edge="1" parent="1" source="tNVImOsVkvM8HF4KnN8y-14" target="tNVImOsVkvM8HF4KnN8y-15">
          <mxGeometry relative="1" as="geometry" />
        </mxCell>
        <mxCell id="tNVImOsVkvM8HF4KnN8y-13" style="edgeStyle=none;curved=1;rounded=0;orthogonalLoop=1;jettySize=auto;html=1;exitX=1;exitY=1;exitDx=0;exitDy=0;entryX=0;entryY=0.5;entryDx=0;entryDy=0;fontSize=12;startSize=8;endSize=8;" edge="1" parent="1" source="tNVImOsVkvM8HF4KnN8y-14" target="tNVImOsVkvM8HF4KnN8y-17">
          <mxGeometry relative="1" as="geometry" />
        </mxCell>
        <mxCell id="tNVImOsVkvM8HF4KnN8y-14" value="&lt;font style=&quot;font-size: 16px;&quot;&gt;user 6&lt;/font&gt;" style="ellipse;whiteSpace=wrap;html=1;aspect=fixed;" vertex="1" parent="1">
          <mxGeometry x="-41" y="169" width="80" height="80" as="geometry" />
        </mxCell>
        <mxCell id="tNVImOsVkvM8HF4KnN8y-15" value="&lt;font style=&quot;font-size: 16px;&quot;&gt;user 7&lt;/font&gt;" style="ellipse;whiteSpace=wrap;html=1;aspect=fixed;" vertex="1" parent="1">
          <mxGeometry x="-152" y="206" width="80" height="80" as="geometry" />
        </mxCell>
        <mxCell id="tNVImOsVkvM8HF4KnN8y-16" style="edgeStyle=none;curved=1;rounded=0;orthogonalLoop=1;jettySize=auto;html=1;exitX=0.5;exitY=0;exitDx=0;exitDy=0;entryX=1;entryY=1;entryDx=0;entryDy=0;fontSize=12;startSize=8;endSize=8;" edge="1" parent="1" source="tNVImOsVkvM8HF4KnN8y-17" target="tNVImOsVkvM8HF4KnN8y-7">
          <mxGeometry relative="1" as="geometry" />
        </mxCell>
        <mxCell id="tNVImOsVkvM8HF4KnN8y-17" value="&lt;font style=&quot;font-size: 16px;&quot;&gt;user 8&lt;/font&gt;" style="ellipse;whiteSpace=wrap;html=1;aspect=fixed;" vertex="1" parent="1">
          <mxGeometry x="156" y="280" width="80" height="80" as="geometry" />
        </mxCell>
        <mxCell id="tNVImOsVkvM8HF4KnN8y-18" value="&lt;font style=&quot;font-size: 16px;&quot;&gt;user 9&lt;/font&gt;" style="ellipse;whiteSpace=wrap;html=1;aspect=fixed;" vertex="1" parent="1">
          <mxGeometry x="-185" y="-97" width="80" height="80" as="geometry" />
        </mxCell>
        <mxCell id="tNVImOsVkvM8HF4KnN8y-19" style="edgeStyle=none;curved=1;rounded=0;orthogonalLoop=1;jettySize=auto;html=1;exitX=0;exitY=0;exitDx=0;exitDy=0;entryX=0.5;entryY=1;entryDx=0;entryDy=0;fontSize=12;startSize=8;endSize=8;" edge="1" parent="1" source="tNVImOsVkvM8HF4KnN8y-20" target="tNVImOsVkvM8HF4KnN8y-11">
          <mxGeometry relative="1" as="geometry" />
        </mxCell>
        <mxCell id="tNVImOsVkvM8HF4KnN8y-20" value="&lt;font style=&quot;font-size: 16px;&quot;&gt;user 10&lt;/font&gt;" style="ellipse;whiteSpace=wrap;html=1;aspect=fixed;" vertex="1" parent="1">
          <mxGeometry x="-217" y="292" width="80" height="80" as="geometry" />
        </mxCell>
      </root>
    </mxGraphModel>
  </diagram>
  <diagram id="e7_TrPuGxEBSFh4KC1jl" name="publishing">
    <mxGraphModel dx="4425" dy="1138" grid="0" gridSize="10" guides="1" tooltips="1" connect="1" arrows="1" fold="1" page="0" pageScale="1" pageWidth="827" pageHeight="1169" math="0" shadow="0">
      <root>
        <mxCell id="0" />
        <mxCell id="1" parent="0" />
        <mxCell id="oBemFIaa1shh3R5s6v1a-47" style="edgeStyle=none;curved=1;rounded=0;orthogonalLoop=1;jettySize=auto;html=1;exitX=0.5;exitY=1;exitDx=0;exitDy=0;entryX=0.5;entryY=0;entryDx=0;entryDy=0;fontSize=12;startSize=8;endSize=8;" edge="1" parent="1" source="oBemFIaa1shh3R5s6v1a-21" target="oBemFIaa1shh3R5s6v1a-28">
          <mxGeometry relative="1" as="geometry" />
        </mxCell>
        <mxCell id="oBemFIaa1shh3R5s6v1a-64" style="edgeStyle=none;curved=1;rounded=0;orthogonalLoop=1;jettySize=auto;html=1;exitX=0.5;exitY=1;exitDx=0;exitDy=0;entryX=0.5;entryY=0;entryDx=0;entryDy=0;fontSize=12;startSize=8;endSize=8;" edge="1" parent="1" source="oBemFIaa1shh3R5s6v1a-21" target="oBemFIaa1shh3R5s6v1a-46">
          <mxGeometry relative="1" as="geometry" />
        </mxCell>
        <mxCell id="oBemFIaa1shh3R5s6v1a-21" value="&lt;font style=&quot;font-size: 16px;&quot;&gt;user 1&lt;/font&gt;" style="ellipse;whiteSpace=wrap;html=1;aspect=fixed;" vertex="1" parent="1">
          <mxGeometry x="-846" y="508" width="80" height="80" as="geometry" />
        </mxCell>
        <mxCell id="oBemFIaa1shh3R5s6v1a-48" style="edgeStyle=none;curved=1;rounded=0;orthogonalLoop=1;jettySize=auto;html=1;exitX=0.5;exitY=1;exitDx=0;exitDy=0;entryX=0.5;entryY=0;entryDx=0;entryDy=0;fontSize=12;startSize=8;endSize=8;" edge="1" parent="1" source="oBemFIaa1shh3R5s6v1a-22" target="oBemFIaa1shh3R5s6v1a-28">
          <mxGeometry relative="1" as="geometry" />
        </mxCell>
        <mxCell id="oBemFIaa1shh3R5s6v1a-22" value="&lt;font style=&quot;font-size: 16px;&quot;&gt;user 5&lt;/font&gt;" style="ellipse;whiteSpace=wrap;html=1;aspect=fixed;" vertex="1" parent="1">
          <mxGeometry x="-742" y="506" width="80" height="80" as="geometry" />
        </mxCell>
        <mxCell id="oBemFIaa1shh3R5s6v1a-50" style="edgeStyle=none;curved=1;rounded=0;orthogonalLoop=1;jettySize=auto;html=1;exitX=0.5;exitY=1;exitDx=0;exitDy=0;entryX=0.5;entryY=0;entryDx=0;entryDy=0;fontSize=12;startSize=8;endSize=8;" edge="1" parent="1" source="oBemFIaa1shh3R5s6v1a-23" target="oBemFIaa1shh3R5s6v1a-30">
          <mxGeometry relative="1" as="geometry" />
        </mxCell>
        <mxCell id="oBemFIaa1shh3R5s6v1a-23" value="&lt;font style=&quot;font-size: 16px;&quot;&gt;user 2&lt;/font&gt;" style="ellipse;whiteSpace=wrap;html=1;aspect=fixed;" vertex="1" parent="1">
          <mxGeometry x="-1049" y="502" width="80" height="80" as="geometry" />
        </mxCell>
        <mxCell id="oBemFIaa1shh3R5s6v1a-51" style="edgeStyle=none;curved=1;rounded=0;orthogonalLoop=1;jettySize=auto;html=1;exitX=0.5;exitY=1;exitDx=0;exitDy=0;entryX=0.5;entryY=0;entryDx=0;entryDy=0;fontSize=12;startSize=8;endSize=8;" edge="1" parent="1" source="oBemFIaa1shh3R5s6v1a-24" target="oBemFIaa1shh3R5s6v1a-32">
          <mxGeometry relative="1" as="geometry" />
        </mxCell>
        <mxCell id="oBemFIaa1shh3R5s6v1a-24" value="&lt;font style=&quot;font-size: 16px;&quot;&gt;user 3&lt;/font&gt;" style="ellipse;whiteSpace=wrap;html=1;aspect=fixed;" vertex="1" parent="1">
          <mxGeometry x="-404" y="530" width="80" height="80" as="geometry" />
        </mxCell>
        <mxCell id="oBemFIaa1shh3R5s6v1a-49" style="edgeStyle=none;curved=1;rounded=0;orthogonalLoop=1;jettySize=auto;html=1;exitX=0.5;exitY=1;exitDx=0;exitDy=0;entryX=0.5;entryY=0;entryDx=0;entryDy=0;fontSize=12;startSize=8;endSize=8;" edge="1" parent="1" source="oBemFIaa1shh3R5s6v1a-25" target="oBemFIaa1shh3R5s6v1a-28">
          <mxGeometry relative="1" as="geometry" />
        </mxCell>
        <mxCell id="oBemFIaa1shh3R5s6v1a-25" value="&lt;font style=&quot;font-size: 16px;&quot;&gt;user 8&lt;/font&gt;" style="ellipse;whiteSpace=wrap;html=1;aspect=fixed;" vertex="1" parent="1">
          <mxGeometry x="-623" y="508" width="80" height="80" as="geometry" />
        </mxCell>
        <mxCell id="oBemFIaa1shh3R5s6v1a-28" value="&lt;span style=&quot;font-size: 16px;&quot;&gt;review 1&lt;/span&gt;" style="whiteSpace=wrap;html=1;aspect=fixed;" vertex="1" parent="1">
          <mxGeometry x="-756" y="667" width="80" height="80" as="geometry" />
        </mxCell>
        <mxCell id="oBemFIaa1shh3R5s6v1a-30" value="&lt;font style=&quot;font-size: 16px;&quot;&gt;review 2&lt;/font&gt;" style="whiteSpace=wrap;html=1;aspect=fixed;" vertex="1" parent="1">
          <mxGeometry x="-1049" y="674" width="80" height="80" as="geometry" />
        </mxCell>
        <mxCell id="oBemFIaa1shh3R5s6v1a-32" value="&lt;span style=&quot;font-size: 16px;&quot;&gt;review 3&lt;/span&gt;" style="whiteSpace=wrap;html=1;aspect=fixed;" vertex="1" parent="1">
          <mxGeometry x="-404" y="667" width="80" height="80" as="geometry" />
        </mxCell>
        <mxCell id="oBemFIaa1shh3R5s6v1a-34" value="&lt;span style=&quot;font-size: 16px;&quot;&gt;review 4&lt;/span&gt;" style="whiteSpace=wrap;html=1;aspect=fixed;" vertex="1" parent="1">
          <mxGeometry x="-270" y="667" width="80" height="80" as="geometry" />
        </mxCell>
        <mxCell id="oBemFIaa1shh3R5s6v1a-46" value="&lt;span style=&quot;font-size: 16px;&quot;&gt;review 9&lt;/span&gt;" style="whiteSpace=wrap;html=1;aspect=fixed;" vertex="1" parent="1">
          <mxGeometry x="-912" y="667" width="80" height="80" as="geometry" />
        </mxCell>
        <mxCell id="oBemFIaa1shh3R5s6v1a-53" style="edgeStyle=none;curved=1;rounded=0;orthogonalLoop=1;jettySize=auto;html=1;exitX=0.5;exitY=1;exitDx=0;exitDy=0;entryX=0.5;entryY=0;entryDx=0;entryDy=0;fontSize=12;startSize=8;endSize=8;" edge="1" parent="1" source="oBemFIaa1shh3R5s6v1a-52" target="oBemFIaa1shh3R5s6v1a-32">
          <mxGeometry relative="1" as="geometry" />
        </mxCell>
        <mxCell id="oBemFIaa1shh3R5s6v1a-52" value="&lt;font style=&quot;font-size: 16px;&quot;&gt;user 4&lt;/font&gt;" style="ellipse;whiteSpace=wrap;html=1;aspect=fixed;" vertex="1" parent="1">
          <mxGeometry x="-490" y="506" width="80" height="80" as="geometry" />
        </mxCell>
        <mxCell id="oBemFIaa1shh3R5s6v1a-56" style="edgeStyle=none;curved=1;rounded=0;orthogonalLoop=1;jettySize=auto;html=1;exitX=0.5;exitY=1;exitDx=0;exitDy=0;entryX=0.5;entryY=0;entryDx=0;entryDy=0;fontSize=12;startSize=8;endSize=8;" edge="1" parent="1" source="oBemFIaa1shh3R5s6v1a-54" target="oBemFIaa1shh3R5s6v1a-34">
          <mxGeometry relative="1" as="geometry" />
        </mxCell>
        <mxCell id="oBemFIaa1shh3R5s6v1a-54" value="&lt;font style=&quot;font-size: 16px;&quot;&gt;user 6&lt;/font&gt;" style="ellipse;whiteSpace=wrap;html=1;aspect=fixed;" vertex="1" parent="1">
          <mxGeometry x="-166" y="508" width="80" height="80" as="geometry" />
        </mxCell>
        <mxCell id="oBemFIaa1shh3R5s6v1a-58" style="edgeStyle=none;curved=1;rounded=0;orthogonalLoop=1;jettySize=auto;html=1;exitX=0.5;exitY=1;exitDx=0;exitDy=0;entryX=0.5;entryY=0;entryDx=0;entryDy=0;fontSize=12;startSize=8;endSize=8;" edge="1" parent="1" source="oBemFIaa1shh3R5s6v1a-57" target="oBemFIaa1shh3R5s6v1a-34">
          <mxGeometry relative="1" as="geometry" />
        </mxCell>
        <mxCell id="oBemFIaa1shh3R5s6v1a-57" value="&lt;font style=&quot;font-size: 16px;&quot;&gt;user 7&lt;/font&gt;" style="ellipse;whiteSpace=wrap;html=1;aspect=fixed;" vertex="1" parent="1">
          <mxGeometry x="-280" y="512" width="80" height="80" as="geometry" />
        </mxCell>
        <mxCell id="oBemFIaa1shh3R5s6v1a-61" style="edgeStyle=none;curved=1;rounded=0;orthogonalLoop=1;jettySize=auto;html=1;exitX=0.5;exitY=1;exitDx=0;exitDy=0;entryX=0.5;entryY=0;entryDx=0;entryDy=0;fontSize=12;startSize=8;endSize=8;" edge="1" parent="1" source="oBemFIaa1shh3R5s6v1a-60" target="oBemFIaa1shh3R5s6v1a-34">
          <mxGeometry relative="1" as="geometry" />
        </mxCell>
        <mxCell id="oBemFIaa1shh3R5s6v1a-60" value="&lt;font style=&quot;font-size: 16px;&quot;&gt;user 9&lt;/font&gt;" style="ellipse;whiteSpace=wrap;html=1;aspect=fixed;" vertex="1" parent="1">
          <mxGeometry x="-52" y="502" width="80" height="80" as="geometry" />
        </mxCell>
        <mxCell id="oBemFIaa1shh3R5s6v1a-63" style="edgeStyle=none;curved=1;rounded=0;orthogonalLoop=1;jettySize=auto;html=1;exitX=0.5;exitY=1;exitDx=0;exitDy=0;entryX=0.5;entryY=0;entryDx=0;entryDy=0;fontSize=12;startSize=8;endSize=8;" edge="1" parent="1" source="oBemFIaa1shh3R5s6v1a-62" target="oBemFIaa1shh3R5s6v1a-46">
          <mxGeometry relative="1" as="geometry" />
        </mxCell>
        <mxCell id="oBemFIaa1shh3R5s6v1a-62" value="&lt;font style=&quot;font-size: 16px;&quot;&gt;user 10&lt;/font&gt;" style="ellipse;whiteSpace=wrap;html=1;aspect=fixed;" vertex="1" parent="1">
          <mxGeometry x="-955" y="502" width="80" height="80" as="geometry" />
        </mxCell>
      </root>
    </mxGraphModel>
  </diagram>
  <diagram id="BA7dH0cRYrJCW55VLuEp" name="reading">
    <mxGraphModel dx="2988" dy="1230" grid="0" gridSize="10" guides="1" tooltips="1" connect="1" arrows="1" fold="1" page="0" pageScale="1" pageWidth="827" pageHeight="1169" math="0" shadow="0">
      <root>
        <mxCell id="0" />
        <mxCell id="1" parent="0" />
        <mxCell id="9gXiCrRaYnpIWSkowWJv-32" style="edgeStyle=none;curved=1;rounded=0;orthogonalLoop=1;jettySize=auto;html=1;exitX=0.5;exitY=1;exitDx=0;exitDy=0;entryX=0.5;entryY=0;entryDx=0;entryDy=0;fontSize=12;startSize=8;endSize=8;" edge="1" parent="1" source="9gXiCrRaYnpIWSkowWJv-1" target="9gXiCrRaYnpIWSkowWJv-11">
          <mxGeometry relative="1" as="geometry" />
        </mxCell>
        <mxCell id="o-BpodgfpOPKupf3vaGc-7" style="edgeStyle=none;curved=1;rounded=0;orthogonalLoop=1;jettySize=auto;html=1;exitX=0.5;exitY=1;exitDx=0;exitDy=0;entryX=0.5;entryY=0;entryDx=0;entryDy=0;fontSize=12;startSize=8;endSize=8;" edge="1" parent="1" source="9gXiCrRaYnpIWSkowWJv-1" target="9gXiCrRaYnpIWSkowWJv-17">
          <mxGeometry relative="1" as="geometry" />
        </mxCell>
        <mxCell id="9gXiCrRaYnpIWSkowWJv-1" value="&lt;font style=&quot;font-size: 16px;&quot;&gt;user 1&lt;/font&gt;" style="ellipse;whiteSpace=wrap;html=1;aspect=fixed;" vertex="1" parent="1">
          <mxGeometry x="-1064" y="142" width="80" height="80" as="geometry" />
        </mxCell>
        <mxCell id="o-BpodgfpOPKupf3vaGc-5" style="edgeStyle=none;curved=1;rounded=0;orthogonalLoop=1;jettySize=auto;html=1;exitX=0.5;exitY=1;exitDx=0;exitDy=0;entryX=0.5;entryY=0;entryDx=0;entryDy=0;fontSize=12;startSize=8;endSize=8;" edge="1" parent="1" source="9gXiCrRaYnpIWSkowWJv-2" target="9gXiCrRaYnpIWSkowWJv-15">
          <mxGeometry relative="1" as="geometry" />
        </mxCell>
        <mxCell id="9gXiCrRaYnpIWSkowWJv-2" value="&lt;font style=&quot;font-size: 16px;&quot;&gt;user 6&lt;/font&gt;" style="ellipse;whiteSpace=wrap;html=1;aspect=fixed;" vertex="1" parent="1">
          <mxGeometry x="-723" y="137" width="80" height="80" as="geometry" />
        </mxCell>
        <mxCell id="o-BpodgfpOPKupf3vaGc-3" style="edgeStyle=none;curved=1;rounded=0;orthogonalLoop=1;jettySize=auto;html=1;exitX=0.5;exitY=1;exitDx=0;exitDy=0;entryX=0.5;entryY=0;entryDx=0;entryDy=0;fontSize=12;startSize=8;endSize=8;" edge="1" parent="1" source="9gXiCrRaYnpIWSkowWJv-3" target="9gXiCrRaYnpIWSkowWJv-19">
          <mxGeometry relative="1" as="geometry" />
        </mxCell>
        <mxCell id="9gXiCrRaYnpIWSkowWJv-3" value="&lt;font style=&quot;font-size: 16px;&quot;&gt;user 3&lt;/font&gt;" style="ellipse;whiteSpace=wrap;html=1;aspect=fixed;" vertex="1" parent="1">
          <mxGeometry x="-850" y="142" width="80" height="80" as="geometry" />
        </mxCell>
        <mxCell id="o-BpodgfpOPKupf3vaGc-2" style="edgeStyle=none;curved=1;rounded=0;orthogonalLoop=1;jettySize=auto;html=1;exitX=0.5;exitY=1;exitDx=0;exitDy=0;entryX=0.5;entryY=0;entryDx=0;entryDy=0;fontSize=12;startSize=8;endSize=8;" edge="1" parent="1" source="9gXiCrRaYnpIWSkowWJv-4" target="9gXiCrRaYnpIWSkowWJv-23">
          <mxGeometry relative="1" as="geometry" />
        </mxCell>
        <mxCell id="9gXiCrRaYnpIWSkowWJv-4" value="&lt;font style=&quot;font-size: 16px;&quot;&gt;user 2&lt;/font&gt;" style="ellipse;whiteSpace=wrap;html=1;aspect=fixed;" vertex="1" parent="1">
          <mxGeometry x="-610" y="139" width="80" height="80" as="geometry" />
        </mxCell>
        <mxCell id="9gXiCrRaYnpIWSkowWJv-6" value="&lt;span style=&quot;font-size: 16px;&quot;&gt;book 3&lt;/span&gt;" style="whiteSpace=wrap;html=1;aspect=fixed;" vertex="1" parent="1">
          <mxGeometry x="-352" y="277" width="80" height="80" as="geometry" />
        </mxCell>
        <mxCell id="9gXiCrRaYnpIWSkowWJv-9" value="&lt;span style=&quot;font-size: 16px;&quot;&gt;book 1&lt;/span&gt;" style="whiteSpace=wrap;html=1;aspect=fixed;" vertex="1" parent="1">
          <mxGeometry x="-1343" y="273" width="80" height="80" as="geometry" />
        </mxCell>
        <mxCell id="9gXiCrRaYnpIWSkowWJv-11" value="&lt;span style=&quot;font-size: 16px;&quot;&gt;book 6&lt;/span&gt;" style="whiteSpace=wrap;html=1;aspect=fixed;" vertex="1" parent="1">
          <mxGeometry x="-992" y="277" width="80" height="80" as="geometry" />
        </mxCell>
        <mxCell id="9gXiCrRaYnpIWSkowWJv-13" value="&lt;span style=&quot;font-size: 16px;&quot;&gt;book 7&lt;/span&gt;" style="whiteSpace=wrap;html=1;aspect=fixed;" vertex="1" parent="1">
          <mxGeometry x="-448" y="277" width="80" height="80" as="geometry" />
        </mxCell>
        <mxCell id="9gXiCrRaYnpIWSkowWJv-15" value="&lt;span style=&quot;font-size: 16px;&quot;&gt;book 4&lt;/span&gt;" style="whiteSpace=wrap;html=1;aspect=fixed;" vertex="1" parent="1">
          <mxGeometry x="-718" y="279" width="80" height="80" as="geometry" />
        </mxCell>
        <mxCell id="9gXiCrRaYnpIWSkowWJv-17" value="&lt;span style=&quot;font-size: 16px;&quot;&gt;book 9&lt;/span&gt;" style="whiteSpace=wrap;html=1;aspect=fixed;" vertex="1" parent="1">
          <mxGeometry x="-1144" y="287" width="80" height="80" as="geometry" />
        </mxCell>
        <mxCell id="9gXiCrRaYnpIWSkowWJv-19" value="&lt;span style=&quot;font-size: 16px;&quot;&gt;book 5&lt;/span&gt;" style="whiteSpace=wrap;html=1;aspect=fixed;" vertex="1" parent="1">
          <mxGeometry x="-840" y="277" width="80" height="80" as="geometry" />
        </mxCell>
        <mxCell id="9gXiCrRaYnpIWSkowWJv-23" value="&lt;span style=&quot;font-size: 16px;&quot;&gt;book 2&lt;/span&gt;" style="whiteSpace=wrap;html=1;aspect=fixed;" vertex="1" parent="1">
          <mxGeometry x="-559" y="279" width="80" height="80" as="geometry" />
        </mxCell>
        <mxCell id="9gXiCrRaYnpIWSkowWJv-33" style="edgeStyle=none;curved=1;rounded=0;orthogonalLoop=1;jettySize=auto;html=1;exitX=0.5;exitY=1;exitDx=0;exitDy=0;entryX=0.5;entryY=0;entryDx=0;entryDy=0;fontSize=12;startSize=8;endSize=8;" edge="1" parent="1" source="9gXiCrRaYnpIWSkowWJv-24" target="9gXiCrRaYnpIWSkowWJv-9">
          <mxGeometry relative="1" as="geometry" />
        </mxCell>
        <mxCell id="9gXiCrRaYnpIWSkowWJv-24" value="&lt;font style=&quot;font-size: 16px;&quot;&gt;user 5&lt;/font&gt;" style="ellipse;whiteSpace=wrap;html=1;aspect=fixed;" vertex="1" parent="1">
          <mxGeometry x="-1343" y="141" width="80" height="80" as="geometry" />
        </mxCell>
        <mxCell id="o-BpodgfpOPKupf3vaGc-4" style="edgeStyle=none;curved=1;rounded=0;orthogonalLoop=1;jettySize=auto;html=1;exitX=0.5;exitY=1;exitDx=0;exitDy=0;entryX=0.5;entryY=0;entryDx=0;entryDy=0;fontSize=12;startSize=8;endSize=8;" edge="1" parent="1" source="9gXiCrRaYnpIWSkowWJv-25" target="9gXiCrRaYnpIWSkowWJv-6">
          <mxGeometry relative="1" as="geometry" />
        </mxCell>
        <mxCell id="9gXiCrRaYnpIWSkowWJv-25" value="&lt;font style=&quot;font-size: 16px;&quot;&gt;user 4&lt;/font&gt;" style="ellipse;whiteSpace=wrap;html=1;aspect=fixed;" vertex="1" parent="1">
          <mxGeometry x="-356" y="136" width="80" height="80" as="geometry" />
        </mxCell>
        <mxCell id="o-BpodgfpOPKupf3vaGc-8" style="edgeStyle=none;curved=1;rounded=0;orthogonalLoop=1;jettySize=auto;html=1;exitX=0.5;exitY=1;exitDx=0;exitDy=0;entryX=0.5;entryY=0;entryDx=0;entryDy=0;fontSize=12;startSize=8;endSize=8;" edge="1" parent="1" source="9gXiCrRaYnpIWSkowWJv-26" target="9gXiCrRaYnpIWSkowWJv-29">
          <mxGeometry relative="1" as="geometry" />
        </mxCell>
        <mxCell id="9gXiCrRaYnpIWSkowWJv-26" value="&lt;font style=&quot;font-size: 16px;&quot;&gt;user 9&lt;/font&gt;" style="ellipse;whiteSpace=wrap;html=1;aspect=fixed;" vertex="1" parent="1">
          <mxGeometry x="-1485" y="144" width="80" height="80" as="geometry" />
        </mxCell>
        <mxCell id="o-BpodgfpOPKupf3vaGc-1" style="edgeStyle=none;curved=1;rounded=0;orthogonalLoop=1;jettySize=auto;html=1;exitX=0.5;exitY=1;exitDx=0;exitDy=0;entryX=0.5;entryY=0;entryDx=0;entryDy=0;fontSize=12;startSize=8;endSize=8;" edge="1" parent="1" source="9gXiCrRaYnpIWSkowWJv-27" target="9gXiCrRaYnpIWSkowWJv-13">
          <mxGeometry relative="1" as="geometry" />
        </mxCell>
        <mxCell id="9gXiCrRaYnpIWSkowWJv-27" value="&lt;font style=&quot;font-size: 16px;&quot;&gt;user 8&lt;/font&gt;" style="ellipse;whiteSpace=wrap;html=1;aspect=fixed;" vertex="1" parent="1">
          <mxGeometry x="-446" y="144" width="80" height="80" as="geometry" />
        </mxCell>
        <mxCell id="9gXiCrRaYnpIWSkowWJv-29" value="&lt;span style=&quot;font-size: 16px;&quot;&gt;book 8&lt;/span&gt;" style="whiteSpace=wrap;html=1;aspect=fixed;" vertex="1" parent="1">
          <mxGeometry x="-1481" y="273" width="80" height="80" as="geometry" />
        </mxCell>
        <mxCell id="o-BpodgfpOPKupf3vaGc-6" style="edgeStyle=none;curved=1;rounded=0;orthogonalLoop=1;jettySize=auto;html=1;exitX=0.5;exitY=1;exitDx=0;exitDy=0;entryX=0.5;entryY=0;entryDx=0;entryDy=0;fontSize=12;startSize=8;endSize=8;" edge="1" parent="1" source="9gXiCrRaYnpIWSkowWJv-30" target="9gXiCrRaYnpIWSkowWJv-23">
          <mxGeometry relative="1" as="geometry" />
        </mxCell>
        <mxCell id="9gXiCrRaYnpIWSkowWJv-30" value="&lt;font style=&quot;font-size: 16px;&quot;&gt;user 7&lt;/font&gt;" style="ellipse;whiteSpace=wrap;html=1;aspect=fixed;" vertex="1" parent="1">
          <mxGeometry x="-536" y="139" width="80" height="80" as="geometry" />
        </mxCell>
        <mxCell id="o-BpodgfpOPKupf3vaGc-10" style="edgeStyle=none;curved=1;rounded=0;orthogonalLoop=1;jettySize=auto;html=1;exitX=0.5;exitY=1;exitDx=0;exitDy=0;entryX=0.5;entryY=0;entryDx=0;entryDy=0;fontSize=12;startSize=8;endSize=8;" edge="1" parent="1" source="o-BpodgfpOPKupf3vaGc-9" target="9gXiCrRaYnpIWSkowWJv-17">
          <mxGeometry relative="1" as="geometry" />
        </mxCell>
        <mxCell id="o-BpodgfpOPKupf3vaGc-9" value="&lt;font style=&quot;font-size: 16px;&quot;&gt;user 10&lt;/font&gt;" style="ellipse;whiteSpace=wrap;html=1;aspect=fixed;" vertex="1" parent="1">
          <mxGeometry x="-1224" y="139" width="80" height="80" as="geometry" />
        </mxCell>
      </root>
    </mxGraphModel>
  </diagram>
</mxfile>
